HIERARCHY
ROOT SpineBase
{
  OFFSET 0.000000 0.000000 0.000000
  CHANNELS 6 Xposition Yposition Zposition Zrotation Xrotation Yrotation
  JOINT SpineMid
  {
    OFFSET -0.000000 31.132691 0.000000
    CHANNELS 3 Zrotation Xrotation Yrotation
    JOINT SpineShoulder
    {
      OFFSET 0.043192 23.087878 -0.709529
      CHANNELS 3 Zrotation Xrotation Yrotation
      JOINT Neck
      {
        OFFSET 0.034482 7.633058 -0.551092
        CHANNELS 3 Zrotation Xrotation Yrotation
        JOINT Head
        {
          OFFSET -5.330348 12.879481 -0.206669
          CHANNELS 3 Zrotation Xrotation Yrotation
          End Site
          {
            OFFSET 0 0 0
          }
        }
      }
      JOINT ShoulderLeft
      {
        OFFSET -15.887688 -4.159843 10.801475
        CHANNELS 3 Zrotation Xrotation Yrotation
        JOINT ElbowLeft
        {
          OFFSET -4.851796 -24.306790 3.315648
          CHANNELS 3 Zrotation Xrotation Yrotation
          JOINT WristLeft
          {
            OFFSET -2.983954 -4.940846 -21.125437
            CHANNELS 3 Zrotation Xrotation Yrotation
            JOINT HandLeft
            {
              OFFSET -2.088944 -2.776504 -10.348133
              CHANNELS 3 Zrotation Xrotation Yrotation
              JOINT HandTipLeft
              {
                OFFSET 2.613156 -0.497861 -3.896073
                CHANNELS 3 Zrotation Xrotation Yrotation
                End Site
                {
                  OFFSET 0 0 0
                }
              }
              JOINT ThumbLeft
              {
                OFFSET -3.146242 1.337434 -0.303338
                CHANNELS 3 Zrotation Xrotation Yrotation
                End Site
                {
                  OFFSET 0 0 0
                }
              }
            }
          }
        }
      }
      JOINT ShoulderRight
      {
        OFFSET 12.800123 -3.083260 -9.218298
        CHANNELS 3 Zrotation Xrotation Yrotation
        JOINT ElbowRight
        {
          OFFSET -4.819754 -20.425009 -3.774104
          CHANNELS 3 Zrotation Xrotation Yrotation
          JOINT WristRight
          {
            OFFSET -20.842916 -11.033387 -10.632740
            CHANNELS 3 Zrotation Xrotation Yrotation
            JOINT HandRight
            {
              OFFSET -5.984862 -2.378039 0.516075
              CHANNELS 3 Zrotation Xrotation Yrotation
              JOINT HandTipRight
              {
                OFFSET -6.715967 -3.155083 3.894889
                CHANNELS 3 Zrotation Xrotation Yrotation
                End Site
                {
                  OFFSET 0 0 0
                }
              }
              JOINT ThumbRight
              {
                OFFSET 0.997759 -4.950953 -1.971377
                CHANNELS 3 Zrotation Xrotation Yrotation
                End Site
                {
                  OFFSET 0 0 0
                }
              }
            }
          }
        }
      }
    }
  }
  JOINT HipLeft
  {
    OFFSET -5.663819 -0.108483 -0.440222
    CHANNELS 3 Zrotation Xrotation Yrotation
    JOINT KneeLeft
    {
      OFFSET 0.414979 -34.827093 4.461462
      CHANNELS 3 Zrotation Xrotation Yrotation
      JOINT AnkleLeft
      {
        OFFSET 5.752695 -37.986028 13.096764
        CHANNELS 3 Zrotation Xrotation Yrotation
        JOINT FootLeft
        {
          OFFSET -3.026808 -7.902089 -3.795152
          CHANNELS 3 Zrotation Xrotation Yrotation
          End Site
          {
            OFFSET 0 0 0
          }
        }
      }
    }
  }
  JOINT HipRight
  {
    OFFSET 6.207887 1.948822 -6.532497
    CHANNELS 3 Zrotation Xrotation Yrotation
    JOINT KneeRight
    {
      OFFSET 6.817216 -35.436899 -3.689160
      CHANNELS 3 Zrotation Xrotation Yrotation
      JOINT AnkleRight
      {
        OFFSET 6.793013 -36.395386 8.107958
        CHANNELS 3 Zrotation Xrotation Yrotation
        JOINT FootRight
        {
          OFFSET -1.789936 -8.362518 -4.039903
          CHANNELS 3 Zrotation Xrotation Yrotation
          End Site
          {
            OFFSET 0 0 0
          }
        }
      }
    }
  }
}
MOTION
Frames: 7
Frame Time: 0.033333
-29.333116 83.584089 318.754020 -4.308310 -0.949273 35.416105 -0.675142 0.091209 -35.606787 0.019015 -0.029221 -0.200074 -25.178805 -11.067325 -8.911276 0.000000 0.000000 0.000000 -67.655326 65.672270 27.304104 117.462556 -47.297930 45.172277 7.087133 -4.717888 13.582064 -24.113490 -22.766571 31.802272 0.000000 0.000000 0.000000 0.000000 0.000000 0.000000 17.025111 9.346338 -5.043257 -25.615388 1.821915 -3.916738 6.285700 -13.404404 10.086950 -21.009541 -0.668596 -20.488070 0.000000 0.000000 0.000000 0.000000 0.000000 0.000000 1.380391 2.271391 -35.935561 10.574410 -2.264104 2.793654 -4.852907 2.793033 -3.221675 0.000000 0.000000 0.000000 -1.795061 -3.458321 -36.196524 8.773736 6.389424 1.290135 1.224835 1.254292 -5.070034 0.000000 0.000000 0.000000
-29.457733 83.473297 318.741819 -4.444071 -1.088998 34.992866 -0.598405 -0.090614 -35.194853 -0.012992 -0.218986 -0.207347 -24.433315 -10.354557 -8.353364 0.000000 0.000000 0.000000 -72.181927 63.954353 29.255762 117.400415 -45.586540 41.195010 7.058796 -4.608259 13.421810 -23.143313 -21.061087 34.043206 0.000000 0.000000 0.000000 0.000000 0.000000 0.000000 17.016383 9.979322 -5.220085 -26.861512 2.031946 -3.618079 10.931583 -13.333991 11.245230 -20.366618 1.160318 -21.041237 0.000000 0.000000 0.000000 0.000000 0.000000 0.000000 1.491665 2.063903 -35.511962 10.515137 -1.964591 2.768684 -4.620146 3.990794 -3.853000 0.000000 0.000000 0.000000 -1.277772 -3.427061 -35.750418 8.542266 6.143034 1.303656 2.988915 -1.966173 -5.097857 0.000000 0.000000 0.000000
-29.560225 83.372860 318.666447 -4.536787 -1.135208 34.831298 -0.479615 -0.171478 -35.036089 -0.050081 -0.361158 -0.212706 -23.350019 -10.039331 -8.008340 0.000000 0.000000 0.000000 -71.967310 62.451900 28.117737 115.097805 -45.068617 36.790515 6.198972 -3.601005 13.521347 -22.418867 -25.424441 33.235319 0.000000 0.000000 0.000000 0.000000 0.000000 0.000000 17.032843 10.555198 -5.409909 -28.533175 2.206333 -3.290170 17.527620 -12.829534 12.429387 -16.118834 1.857454 -17.529345 0.000000 0.000000 0.000000 0.000000 0.000000 0.000000 1.387184 1.643487 -35.358011 10.549468 -1.406494 2.750629 -4.978942 4.515384 -4.006548 0.000000 0.000000 0.000000 -0.977280 -3.616536 -35.622857 8.258641 6.082988 1.325682 2.970442 -2.169094 -4.981669 0.000000 0.000000 0.000000
-29.640453 83.295097 318.560394 -4.599127 -1.110292 34.955904 -0.437009 -0.275471 -35.163237 -0.042088 -0.376960 -0.211213 -21.554933 -9.672863 -7.513998 0.000000 0.000000 0.000000 -58.859052 68.532815 23.827052 112.700248 -50.568767 46.671747 4.371176 -1.870162 13.172241 -22.588266 -31.433887 29.866090 0.000000 0.000000 0.000000 0.000000 0.000000 0.000000 16.910158 10.819574 -5.471965 -30.262093 2.599424 -2.875170 25.519814 -13.039996 16.935196 -17.381552 1.732685 -14.022236 0.000000 0.000000 0.000000 0.000000 0.000000 0.000000 1.300139 1.193852 -35.482353 10.514416 -0.942173 2.721892 -5.570150 4.963125 -3.967775 0.000000 0.000000 0.000000 -0.866248 -3.915718 -35.808919 8.015965 6.166803 1.354096 -4.793588 10.881337 -3.850513 0.000000 0.000000 0.000000
-29.694343 83.229221 318.389796 -4.643172 -1.089427 35.324121 -0.371897 -0.315995 -35.530804 -0.008636 -0.353787 -0.206774 -19.212254 -8.918082 -6.682150 0.000000 0.000000 0.000000 -48.877122 70.052342 17.935938 108.613438 -53.514330 49.473283 1.924345 0.785536 11.984079 -22.838514 -37.952715 25.699620 0.000000 0.000000 0.000000 0.000000 0.000000 0.000000 16.617416 10.870281 -5.426838 -32.095639 3.130972 -2.304792 33.096515 -10.290835 12.164499 -16.919448 -0.650031 -6.277123 0.000000 0.000000 0.000000 0.000000 0.000000 0.000000 1.250752 0.809423 -35.847433 10.499073 -0.658301 2.699581 -6.542938 6.071007 -3.910237 0.000000 0.000000 0.000000 -0.949712 -4.282226 -36.273767 7.896078 6.466529 1.396629 -14.423175 23.588012 -0.145931 0.000000 0.000000 0.000000
-29.689502 83.174960 318.177298 -4.653117 -1.036769 36.169685 -0.297851 -0.295132 -36.371109 0.047177 -0.271507 -0.198650 -16.141233 -8.013623 -5.685984 0.000000 0.000000 0.000000 -18.321436 74.164627 -1.935563 101.560580 -61.487333 58.364513 0.720516 1.083423 15.258105 -24.557126 -39.473332 22.639320 0.000000 0.000000 0.000000 0.000000 0.000000 0.000000 16.214753 10.638349 -5.277713 -33.885278 3.959038 -1.863905 41.857133 -7.823741 7.682153 -19.501346 -1.546068 -2.413890 0.000000 0.000000 0.000000 0.000000 0.000000 0.000000 1.144467 0.498435 -36.694067 10.486864 -0.449420 2.672390 -7.177491 6.845173 -3.855043 0.000000 0.000000 0.000000 -1.333591 -4.664608 -37.242143 7.918345 6.901200 1.424826 -20.854243 29.964145 3.317811 0.000000 0.000000 0.000000
-29.676019 83.167098 318.005582 -4.609721 -0.876436 37.504873 -0.159188 -0.222604 -37.690773 0.093089 -0.184671 -0.188197 -13.013358 -7.390321 -4.863010 0.000000 0.000000 0.000000 6.266943 74.064731 -19.497856 93.643181 -67.401760 60.779424 1.340336 0.356715 7.551724 -22.037120 -52.402310 27.737216 0.000000 0.000000 0.000000 0.000000 0.000000 0.000000 15.794531 10.095799 -5.064132 -33.916870 4.632592 -2.206916 43.830646 -7.361494 7.911585 -16.299325 0.210772 -0.420205 0.000000 0.000000 0.000000 0.000000 0.000000 0.000000 1.073673 0.337213 -38.018789 10.427514 -0.582519 2.652474 -7.531512 7.207354 -3.710850 0.000000 0.000000 0.000000 -1.872106 -5.053619 -38.699339 7.934791 7.331344 1.451558 -24.175051 32.369690 5.345603 0.000000 0.000000 0.000000
